<svg width="14" height="14" viewBox="0 0 14 14" fill="none" xmlns="http://www.w3.org/2000/svg">
<g clip-path="url(#clip0_1176_3535)">
<path d="M4.08333 0H2.33333C1.04467 0 0 1.04467 0 2.33333V4.08333C0 5.372 1.04467 6.41667 2.33333 6.41667H4.08333C5.372 6.41667 6.41667 5.372 6.41667 4.08333V2.33333C6.41667 1.04467 5.372 0 4.08333 0Z" fill="#B6B6B6"/>
<path d="M11.6666 0H9.91658C8.62792 0 7.58325 1.04467 7.58325 2.33333V4.08334C7.58325 5.372 8.62792 6.41667 9.91658 6.41667H11.6666C12.9552 6.41667 13.9999 5.372 13.9999 4.08334V2.33333C13.9999 1.04467 12.9552 0 11.6666 0Z" fill="#B6B6B6"/>
<path d="M4.08333 7.58325H2.33333C1.04467 7.58325 0 8.62792 0 9.91659V11.6666C0 12.9553 1.04467 13.9999 2.33333 13.9999H4.08333C5.372 13.9999 6.41667 12.9553 6.41667 11.6666V9.91659C6.41667 8.62792 5.372 7.58325 4.08333 7.58325Z" fill="#B6B6B6"/>
<path d="M11.6666 7.58325H9.91658C8.62792 7.58325 7.58325 8.62792 7.58325 9.91659V11.6666C7.58325 12.9553 8.62792 13.9999 9.91658 13.9999H11.6666C12.9552 13.9999 13.9999 12.9553 13.9999 11.6666V9.91659C13.9999 8.62792 12.9552 7.58325 11.6666 7.58325Z" fill="#B6B6B6"/>
</g>
<defs>
<clipPath id="clip0_1176_3535">
<rect width="14" height="14" fill="white"/>
</clipPath>
</defs>
</svg>
