<svg width="12" height="12" viewBox="0 0 12 12" fill="none" xmlns="http://www.w3.org/2000/svg">
<g clip-path="url(#clip0_1176_3556)">
<path d="M0.80341 9C1.21699 9.7178 2.13417 9.96441 2.85196 9.55083C2.85246 9.55055 2.85293 9.55027 2.85342 9.54998L3.07591 9.42148C3.49591 9.78082 3.97868 10.0595 4.4999 10.2435V10.5C4.4999 11.3284 5.17148 12 5.9999 12C6.82832 12 7.4999 11.3284 7.4999 10.5V10.2435C8.0212 10.0592 8.50399 9.78021 8.92389 9.42049L9.1474 9.54949C9.86536 9.9637 10.7832 9.71747 11.1974 8.99948C11.6116 8.28152 11.3654 7.36369 10.6474 6.94948L10.4254 6.82148C10.5253 6.27771 10.5253 5.72027 10.4254 5.17648L10.6474 5.04848C11.3654 4.63427 11.6116 3.71646 11.1974 2.99848C10.7832 2.28052 9.86538 2.03426 9.1474 2.44847L8.9249 2.57698C8.50448 2.21808 8.02139 1.93992 7.4999 1.7565V1.5C7.4999 0.671578 6.82832 0 5.9999 0C5.17148 0 4.4999 0.671578 4.4999 1.5V1.7565C3.97861 1.94079 3.49582 2.21979 3.07591 2.57951L2.85241 2.45002C2.13443 2.03578 1.21661 2.28204 0.802402 3C0.388192 3.71796 0.634426 4.6358 1.35241 5.05001L1.57441 5.178C1.47447 5.72177 1.47447 6.27921 1.57441 6.82301L1.35241 6.951C0.636418 7.36631 0.390981 8.28234 0.80341 9ZM5.9999 4.00001C7.10447 4.00001 7.9999 4.89544 7.9999 6C7.9999 7.10456 7.10447 7.99999 5.9999 7.99999C4.89534 7.99999 3.99991 7.10456 3.99991 6C3.99991 4.89544 4.89534 4.00001 5.9999 4.00001Z" fill="#B6B6B6"/>
</g>
<defs>
<clipPath id="clip0_1176_3556">
<rect width="12" height="12" fill="white"/>
</clipPath>
</defs>
</svg>
