<svg width="12" height="12" viewBox="0 0 12 12" fill="none" xmlns="http://www.w3.org/2000/svg">
<g clip-path="url(#clip0_1176_3562)">
<path d="M11.4153 4.58559L9.47585 2.64609C9.27721 2.45425 8.96069 2.45976 8.76885 2.65839C8.58171 2.85215 8.58171 3.15934 8.76885 3.3531L10.7084 5.2926C10.766 5.35136 10.8163 5.41684 10.8584 5.4876C10.8509 5.4876 10.8449 5.48359 10.8374 5.48359L2.99535 5.4996C2.71921 5.4996 2.49536 5.72345 2.49536 5.99959C2.49536 6.27574 2.71921 6.49959 2.99535 6.49959L10.8344 6.48358C10.8483 6.48358 10.8599 6.47657 10.8734 6.47559C10.829 6.56017 10.7728 6.63796 10.7064 6.70659L8.76686 8.64609C8.56823 8.83792 8.56272 9.15445 8.75456 9.35308C8.94639 9.55171 9.26292 9.55722 9.46155 9.36538C9.46572 9.36135 9.46982 9.35725 9.47385 9.35308L11.4134 7.41358C12.1941 6.63257 12.1941 5.36657 11.4134 4.58559H11.4153Z" fill="#F6FFFE"/>
<path d="M3.50097 11H2.50096C1.67254 11 1.00096 10.3284 1.00096 9.49999V2.50001C1.00096 1.67159 1.67254 1.00001 2.50096 1.00001H3.50097C3.77711 1.00001 4.00096 0.776156 4.00096 0.500016C4.00096 0.223875 3.77713 0 3.50097 0H2.50096C1.12096 0.00166406 0.00264062 1.11998 0.000976562 2.50001V9.50002C0.00264062 10.88 1.12096 11.9984 2.50098 12H3.50099C3.77713 12 4.00098 11.7761 4.00098 11.5C4.00098 11.2239 3.77713 11 3.50097 11Z" fill="#F6FFFE"/>
</g>
<defs>
<clipPath id="clip0_1176_3562">
<rect width="12" height="12" fill="white"/>
</clipPath>
</defs>
</svg>
