<svg width="14" height="14" viewBox="0 0 14 14" fill="none" xmlns="http://www.w3.org/2000/svg">
<g clip-path="url(#clip0_1176_3538)">
<path d="M14 5.25C14 4.78587 13.8156 4.34075 13.4874 4.01256C13.1592 3.68437 12.7141 3.5 12.25 3.5H10.5C10.5 2.57174 10.1313 1.6815 9.47487 1.02513C8.8185 0.368749 7.92826 0 7 0C6.07174 0 5.1815 0.368749 4.52513 1.02513C3.86875 1.6815 3.5 2.57174 3.5 3.5H1.75C1.28587 3.5 0.840752 3.68437 0.512563 4.01256C0.184374 4.34075 0 4.78587 0 5.25L0 11.0833C0.00092625 11.8566 0.308514 12.5979 0.855295 13.1447C1.40208 13.6915 2.1434 13.9991 2.91667 14H11.0833C11.8566 13.9991 12.5979 13.6915 13.1447 13.1447C13.6915 12.5979 13.9991 11.8566 14 11.0833V5.25ZM4.66667 3.5C4.66667 2.88116 4.9125 2.28767 5.35008 1.85008C5.78767 1.4125 6.38116 1.16667 7 1.16667C7.61884 1.16667 8.21233 1.4125 8.64992 1.85008C9.0875 2.28767 9.33333 2.88116 9.33333 3.5H4.66667Z" fill="#B6B6B6"/>
</g>
<defs>
<clipPath id="clip0_1176_3538">
<rect width="14" height="14" fill="white"/>
</clipPath>
</defs>
</svg>
