<svg width="14" height="14" viewBox="0 0 14 14" fill="none" xmlns="http://www.w3.org/2000/svg">
<g clip-path="url(#clip0_1176_3550)">
<path d="M10.916 7.00002H8.16676C7.52243 7.00002 7.00008 6.47767 7.00008 5.83334V3.07652C7.00169 2.53265 6.75032 2.01891 6.31991 1.68644C5.91205 1.36346 5.37726 1.24834 4.87266 1.37494C1.44293 2.22632 -0.647254 5.69687 0.204148 9.12662C0.803988 11.543 2.75108 13.3921 5.19526 13.8664C8.5342 14.5055 11.7921 12.4296 12.6234 9.13327C12.7505 8.62801 12.6356 8.0924 12.3125 7.68369C11.9762 7.25404 11.4616 7.00209 10.916 7.00002Z" fill="#B6B6B6"/>
<path d="M13.7964 4.34355C13.6633 3.84857 13.4649 3.37347 13.2067 2.93072C12.4298 1.59804 11.1609 0.623596 9.67284 0.217049C9.57482 0.190607 9.35549 0.175049 9.35549 0.175049C9.27712 0.175076 8.93959 0.175049 8.67242 0.391475C8.27973 0.700486 8.21799 1.0518 8.21216 1.07922C8.19179 1.16525 8.18121 1.25332 8.18066 1.34172V4.0834C8.18066 5.04989 8.96417 5.8334 9.93067 5.8334H12.6834C13.0486 5.83444 13.3924 5.66105 13.6086 5.36672C13.7685 5.15112 13.8508 4.88774 13.8419 4.61947C13.8373 4.52607 13.822 4.43348 13.7964 4.34355Z" fill="#B6B6B6"/>
</g>
<defs>
<clipPath id="clip0_1176_3550">
<rect width="14" height="14" fill="white"/>
</clipPath>
</defs>
</svg>
